<?xml version="1.0" encoding="utf-8"?>
<!-- Generator: Adobe Illustrator 23.0.3, SVG Export Plug-In . SVG Version: 6.00 Build 0)  -->
<svg version="1.1" id="レイヤー_1" xmlns="http://www.w3.org/2000/svg" xmlns:xlink="http://www.w3.org/1999/xlink" x="0px"
	 y="0px" viewBox="0 0 193.5 388.2" style="enable-background:new 0 0 193.5 388.2;" xml:space="preserve">
<style type="text/css">
	.st0{fill:#00426C;}
</style>
<path class="st0" d="M191.1,114.8c0,0-0.1,0-0.1,0c-0.6,0-1.2-0.1-1.6-0.6c-0.4-0.5-0.3-1.2-0.3-1.8l0-0.2V87.5c0-0.1,0-0.2,0-0.4
	c0-0.4-0.1-0.9,0-1.3c0-0.4,0.1-0.7,0.3-0.9c0.5-0.6,1.2-0.5,2.1-0.4c0.1,0,0.2,0,0.2,0c0.7,0,1.2,0.6,1.2,1.2l0,26.7
	c0.1,0.6,0.1,1.3-0.3,1.8C192.3,114.7,191.8,114.8,191.1,114.8z"/>
<path class="st0" d="M2.5,70.4c-0.7,0-1.4-0.2-1.7-0.6c-0.4-0.5-0.3-1-0.3-1.5l0-14c0-0.4-0.1-1,0.3-1.4c0.5-0.6,1.3-0.5,2.1-0.4
	c0.1,0,0.2,0,0.2,0c0.7,0,1.2,0.6,1.2,1.2l0,7.2c0,0.8,0,1.7,0,2.5c0,1.7,0.1,3.5,0,5.3c0,0.6-0.2,1-0.6,1.3
	C3.6,70.2,3.1,70.4,2.5,70.4z"/>
<path class="st0" d="M2.6,114.8c0,0-0.1,0-0.1,0c-0.6,0-1.2-0.1-1.6-0.6c-0.4-0.5-0.3-1.2-0.3-1.8l0-0.2l0-24.8c0-0.1,0-0.2,0-0.4
	c0-0.4-0.1-0.9,0-1.3c0-0.4,0.1-0.7,0.3-0.9c0.5-0.6,1.3-0.5,2.1-0.4c0.1,0,0.2,0,0.2,0c0.7,0,1.2,0.6,1.2,1.2l0,26.7
	c0.1,0.6,0.1,1.3-0.3,1.8C3.9,114.7,3.3,114.8,2.6,114.8z"/>
<path class="st0" d="M2.6,149.6c0,0-0.1,0-0.1,0c-0.6,0-1.2-0.1-1.6-0.6c-0.4-0.5-0.3-1.2-0.3-1.8l0-0.2l0-24.8c0-0.1,0-0.2,0-0.4
	c0-0.4-0.1-0.9,0-1.3c0-0.4,0.1-0.7,0.3-0.9c0.5-0.6,1.2-0.5,2.1-0.4c0.1,0,0.2,0,0.2,0c0.7,0,1.2,0.6,1.2,1.2l0,26.7
	c0.1,0.6,0.1,1.3-0.3,1.8C3.9,149.5,3.3,149.6,2.6,149.6z M2,147.9L2,147.9L2,147.9z"/>
<path class="st0" d="M177.8,337.7H15.7c-0.7,0-1.2-0.6-1.2-1.2V48.2c0-0.7,0.6-1.2,1.2-1.2h162.1c0.7,0,1.2,0.6,1.2,1.2v288.2
	C179,337.1,178.5,337.7,177.8,337.7z M17,335.2h159.6V49.4H17V335.2z"/>
<path class="st0" d="M161.3,387.7c-0.4,0-0.9,0-1.3,0l-27.7,0H32.4c-2.1,0-4.7-0.1-7.2-0.6c-3.7-0.8-7.4-2.3-10.5-4.5
	c-3.2-2.2-5.9-5-8-8.2c-2.1-3.3-3.6-7-4.2-10.8C2.1,361.9,2,360.1,2,358V29.6c0-3.5,0.6-6.9,1.8-10C5,16,7.1,12.7,9.7,9.9
	c2.6-2.8,5.8-5.1,9.2-6.7c3.8-1.7,8-2.7,12.1-2.7c0,0,0,0,0,0l129.9,0c2.5,0,4.7,0.1,6.8,0.5c3.8,0.7,7.5,2.2,10.7,4.3
	c3.2,2.1,6,4.9,8.1,8.1c2.2,3.2,3.7,7,4.4,10.8c0.3,1.8,0.5,3.7,0.5,6v328.4c0,3.3-0.6,6.6-1.6,9.7c-1.2,3.6-3.2,6.9-5.7,9.7
	c-2.5,2.9-5.7,5.2-9.2,6.9c-3.7,1.8-7.8,2.8-12,2.8C162.5,387.7,161.9,387.7,161.3,387.7z M31,3c-3.8,0-7.6,0.8-11.1,2.4
	c-3.2,1.5-6.1,3.6-8.4,6.1c-2.4,2.6-4.2,5.6-5.4,8.9c-1.1,2.9-1.6,6-1.6,9.2l0,1.6l0,326.7c0,2,0.1,3.7,0.4,5.2
	c0.6,3.5,1.9,6.9,3.9,9.9c1.9,2.9,4.4,5.5,7.3,7.5c2.9,2,6.2,3.4,9.6,4.1c2.3,0.5,4.7,0.5,6.7,0.5l127.6,0c1,0,2,0,3,0
	c3.8-0.1,7.5-1,10.9-2.6c3.2-1.5,6.1-3.7,8.4-6.3c2.3-2.6,4.1-5.6,5.2-8.9c1-2.8,1.5-5.8,1.5-8.9V30.2c0-2.1-0.1-3.9-0.5-5.5
	c-0.7-3.5-2.1-6.9-4-9.9c-1.9-2.9-4.5-5.5-7.4-7.4c-2.9-1.9-6.3-3.3-9.8-3.9c-2-0.4-4-0.4-6.4-0.4L31,3z"/>
<path class="st0" d="M79.8,29.5c-0.7,0-1.3,0-2-0.1c-1.4-0.1-2.5-1.3-2.4-2.8c0.1-1.4,1.2-2.5,2.6-2.5c0,0,0,0,0,0l37,0
	c0.4,0,1.1,0,1.6,0.2c1.1,0.5,1.7,1.6,1.5,2.8c-0.2,1.3-1.3,2.2-2.6,2.3c-1.5,0.1-3.1,0-4.6,0c-0.7,0-1.5,0-2.2,0H83.5
	c-0.6,0-1.2,0-1.8,0C81.1,29.5,80.4,29.5,79.8,29.5z M78,26.6C78,26.6,77.9,26.6,78,26.6c-0.1,0-0.1,0.1-0.1,0.2c0,0,0,0.1,0.1,0.1
	c1.1,0.1,2.4,0.1,3.5,0c0.6,0,1.2,0,1.9,0h25.2c0.8,0,1.5,0,2.3,0c1.5,0,3,0,4.4,0c0.1,0,0.2,0,0.2-0.1c0,0,0.1-0.1,0.1-0.1
	c0,0,0,0-0.1,0c-0.1,0-0.4,0-0.5,0l-0.3,0H78z"/>
<path class="st0" d="M59.2,30.8c-1.4,0-2.7-0.7-3.4-1.9c-0.9-1.4-0.8-3.2,0.2-4.5c1-1.4,2.8-2,4.5-1.4c1.7,0.6,2.8,2,2.8,3.8v0
	c0,2-1.5,3.7-3.4,4C59.6,30.8,59.4,30.8,59.2,30.8z M59.1,25.3c-0.4,0-0.8,0.2-1.2,0.6c-0.5,0.7-0.2,1.5,0,1.7
	c0.1,0.2,0.6,0.9,1.5,0.7c0.7-0.1,1.3-0.8,1.3-1.5c0-0.8-0.6-1.2-1.1-1.4C59.5,25.3,59.3,25.3,59.1,25.3z"/>
<path class="st0" d="M96.8,19c-1.2,0-2.3-0.6-2.9-1.7c-0.7-1.2-0.6-2.7,0.3-3.8c0.9-1.1,2.3-1.4,3.7-0.9c1.3,0.5,2.2,1.7,2.2,3.1
	c0,0,0,0,0,0c0,1.6-1.2,3-2.8,3.3C97.1,19,96.9,19,96.8,19z M96.7,14.9c-0.2,0-0.4,0.1-0.6,0.3c-0.3,0.4-0.1,0.8-0.1,0.9
	c0.1,0.1,0.3,0.5,0.8,0.4c0.4-0.1,0.7-0.4,0.7-0.8c0-0.5-0.4-0.7-0.6-0.8C97,14.9,96.8,14.9,96.7,14.9z"/>
<path class="st0" d="M96.8,375.9c-2.2,0-4.4-0.5-6.5-1.4c-3-1.3-5.5-3.6-7.2-6.3c-1.7-2.8-2.5-6.1-2.2-9.3c0.2-3.2,1.5-6.4,3.6-8.9
	c2.1-2.5,4.9-4.4,8-5.2c3.1-0.9,6.5-0.7,9.6,0.4c3,1.1,5.8,3.1,7.6,5.8c1.9,2.6,2.9,5.9,2.9,9.1c0,0,0,0,0,0c0,0.8-0.1,1.6-0.2,2.4
	c-0.5,3.2-2,6.2-4.2,8.6c-2.2,2.3-5.2,4-8.4,4.6C98.8,375.8,97.8,375.9,96.8,375.9z M96.8,346.7c-1.2,0-2.4,0.2-3.5,0.5
	c-2.6,0.7-5,2.3-6.8,4.4c-1.7,2.1-2.8,4.7-3,7.5c-0.2,2.7,0.5,5.5,1.9,7.9c1.4,2.3,3.5,4.2,6,5.3c2.5,1.1,5.3,1.4,8,0.9
	c2.7-0.5,5.2-1.9,7.1-3.9c1.9-2,3.1-4.5,3.6-7.2c0.1-0.6,0.2-1.3,0.2-2c0-2.7-0.9-5.5-2.4-7.7c-1.6-2.2-3.8-4-6.4-4.9
	C99.8,347,98.3,346.7,96.8,346.7z"/>
<path class="st0" d="M96.8,373.8c-4.8,0-9.3-2.5-11.8-6.7c-3-5-2.5-11.3,1.2-15.8c3.7-4.5,9.8-6.2,15.3-4.2c5.4,1.9,9.1,7.2,9.1,13
	c0,0,0,0,0,0c0,0.7-0.1,1.4-0.2,2.1c-0.9,5.7-5.3,10.3-10.9,11.4C98.6,373.7,97.7,373.8,96.8,373.8z M96.9,348.8
	c-3.3,0-6.6,1.5-8.8,4.1c-3,3.6-3.4,8.9-1,12.9c2.4,4,7.3,6.2,11.8,5.3c4.6-0.9,8.2-4.7,8.9-9.3c0.1-0.5,0.1-1.1,0.1-1.7
	c0-4.7-3-9-7.5-10.6C99.4,349,98.1,348.8,96.9,348.8z"/>
<path class="st0" d="M32.5,388.2c-0.5,0-1,0-1.5,0c-4.2,0-8.2-0.9-12-2.5c-3.6-1.6-6.9-4-9.6-6.8c-2.7-2.8-4.8-6.3-6.1-9.9
	c-1.2-3.3-1.8-6.7-1.8-10.3l0-2.5l0-206c-0.3-0.1-0.7-0.3-0.9-0.6c-0.6-0.7-0.5-1.6-0.5-2.4l0-0.2l0-25.5c0-0.2-0.1-0.6,0-1
	c0-0.2,0.1-0.5,0.2-0.7c0.2-0.5,0.7-0.8,1.2-0.9c0,0,0-0.1,0-0.1v-3.5c-0.4-0.1-0.8-0.3-1.1-0.8c-0.5-0.7-0.4-1.6-0.3-2.5
	c0-0.1,0-0.2,0-0.3l0-25.3c0-0.6,0-1.3,0.6-1.9c0.3-0.2,0.5-0.4,0.8-0.5V70.8c0,0,0,0,0,0c-0.4-0.1-0.8-0.3-1.1-0.7
	C0,69.4,0,68.7,0.1,68.2l0-13.2l0-0.1c0-0.5-0.1-1.1,0.2-1.7c0.2-0.4,0.6-0.9,1.2-1.1l0-12.2c0-3.4,0-6.9,0-10.3
	c0-4.3,0.9-8.4,2.6-12.2c1.6-3.5,4-6.8,6.8-9.5c2.8-2.6,6.3-4.7,9.9-6.1C24.1,0.6,27.6,0,31.2,0l3.9,0l121.4,0l1.9,0l3.9,0
	c3.6,0,7.1,0.6,10.4,1.8c3.6,1.3,7.1,3.4,9.9,6.1c2.9,2.7,5.2,6,6.8,9.5c1.7,3.8,2.6,7.9,2.6,12.1c0,2,0,4.1,0,6.1l0,48.3
	c0.4,0.1,0.7,0.3,1,0.6c0.5,0.5,0.5,1.1,0.4,1.4c0,0.5,0,1,0,1.5c0,0.2,0,0.4,0,0.6v24.8c0,0.4,0.1,1-0.4,1.6
	c-0.3,0.4-0.7,0.6-1,0.7l0,242.3c0,1,0,2-0.1,3.1c-0.3,4.2-1.5,8.3-3.4,12c-1.9,3.5-4.5,6.6-7.5,9.1c-3,2.4-6.5,4.3-10.2,5.3
	c-2.7,0.8-5.7,1.2-9,1.2l-127.8,0C33.5,388.2,33,388.2,32.5,388.2z M5,148.7c0,0.4,0,0.7,0,1.1l0,7.4v201.3c0,3.2,0.5,6.3,1.6,9.1
	c1.2,3.2,3.1,6.3,5.4,8.8c2.4,2.5,5.3,4.6,8.5,6c3.3,1.5,6.9,2.2,10.6,2.2c1,0,2,0,3,0l127.9,0c3,0,5.6-0.3,8-1c3.3-1,6.4-2.6,9-4.7
	c2.7-2.2,5-4.9,6.6-8c1.7-3.2,2.8-6.9,3-10.6c0.1-0.9,0.1-1.9,0.1-2.9l0-242.9c0-0.4-0.1-0.9,0-1.4c0.1-0.4,0.3-0.8,0.6-1.1
	c0.2-0.2,0.5-0.3,0.7-0.3V88.1c0-0.2,0-0.5,0-0.7c-0.8-0.2-1.4-0.9-1.4-1.7l0-50.1c0-2,0-4.1,0-6.1c0-3.8-0.8-7.4-2.3-10.7
	c-1.4-3.1-3.5-6-6-8.4c-2.5-2.3-5.5-4.2-8.7-5.4c-2.9-1.1-6-1.6-9.2-1.6l-3.9,0L37,3.5l-1.9,0l-3.9,0c-3.2,0-6.3,0.5-9.2,1.6
	c-3.2,1.2-6.2,3-8.7,5.4c-2.5,2.3-4.6,5.2-6,8.4C5.8,22.2,5,25.8,5,29.6c0,3.4,0,6.9,0,10.3l0,13c0,0.4,0.1,0.9-0.2,1.5
	c-0.2,0.4-0.5,0.9-1.2,1.1v11.9c0.3,0.1,0.5,0.2,0.8,0.4c0.8,0.7,0.7,1.7,0.6,2.8l0,0.2l0,13.5c0,0.1,0,0.2,0,0.2
	c0,0.3,0.1,0.8-0.1,1.3c-0.1,0.6-0.5,1.3-1.3,1.5v24.3c0,0,0,0.1,0,0.2c0.3,0.1,0.6,0.2,0.9,0.5C5,113,5,113.6,5,113.9l0,0.2v4.6
	c0,0.1,0,0.2,0,0.3c0.1,0.6,0.1,1.4-0.2,2.1c-0.2,0.4-0.5,0.9-1.2,1.1v24.4c0.4,0.1,0.7,0.3,1,0.7C5,147.8,5,148.4,5,148.7z
	 M0.5,121.7C0.5,121.7,0.5,121.7,0.5,121.7C0.5,121.7,0.5,121.7,0.5,121.7z M0.5,121.6C0.5,121.6,0.5,121.6,0.5,121.6
	C0.5,121.6,0.5,121.6,0.5,121.6z M0.5,121.6C0.5,121.6,0.5,121.6,0.5,121.6C0.5,121.6,0.5,121.6,0.5,121.6z M0.5,121.6
	C0.5,121.6,0.5,121.6,0.5,121.6C0.5,121.6,0.5,121.6,0.5,121.6z M0.5,121.6C0.5,121.6,0.5,121.6,0.5,121.6
	C0.5,121.6,0.5,121.6,0.5,121.6z M0.5,121.6C0.5,121.6,0.5,121.6,0.5,121.6C0.5,121.6,0.5,121.6,0.5,121.6z M0.5,121.6
	C0.5,121.6,0.5,121.6,0.5,121.6C0.5,121.6,0.5,121.6,0.5,121.6z M3.5,54.2C3.5,54.2,3.5,54.2,3.5,54.2S3.5,54.2,3.5,54.2z"/>
</svg>
