<?xml version="1.0" encoding="utf-8"?>
<!-- Generator: Adobe Illustrator 23.0.3, SVG Export Plug-In . SVG Version: 6.00 Build 0)  -->
<svg version="1.1" id="レイヤー_1" xmlns="http://www.w3.org/2000/svg" xmlns:xlink="http://www.w3.org/1999/xlink" x="0px"
	 y="0px" viewBox="0 0 480 409.2" style="enable-background:new 0 0 480 409.2;" xml:space="preserve">
<style type="text/css">
	.st0{fill:#00426C;}
</style>
<path id="パス_4" class="st0" d="M453.2,24.6H26.8c-0.9,0-1.7,0.8-1.7,1.7v239.9c0,0.9,0.8,1.7,1.7,1.7h426.4
	c0.9,0,1.7-0.8,1.7-1.7V26.3C454.9,25.4,454.1,24.6,453.2,24.6z M451.5,264.5h-423V28h423.1v236.5H451.5z M415.3,393.5
	c1,2.7,0.8,5.6-0.3,8.2c-1.6,3.1-5,4.8-7.6,5.7c-0.2,0.1-0.3,0.1-0.5,0.1c-0.1,0.4-0.3,0.7-0.5,1c-0.4,0.4-1,0.6-1.6,0.6
	c-0.1,0-0.2,0-0.3,0h-5.1h-9.8c-0.6,0-1.1,0-1.7,0c-1.3,0-2.7,0-4,0c-1.1,0-2.2,0-3.3-0.1h-7.9c-0.7,0.1-1.5-0.1-2-0.6
	c-0.3-0.3-0.4-0.6-0.5-1c-2.5-0.7-4.9-2.1-6.7-4c-1.9-2.1-2.6-5-2.1-8.5c0.4-2.6,2.1-4.6,5.1-5.9c5.6-2.4,12-2.6,17.2-2.8
	c1.6,0,3.2-0.1,4.9-0.1l0,0v1.7v1.7c-1.6,0-3.2,0-4.8,0.1c-4.9,0.1-11,0.3-16,2.5c-2.5,1.1-3,2.4-3.1,3.3c-0.9,2.5,0.3,5.3,2.9,6.2
	c0.3,0.1,0.6,0.2,0.9,0.2c3.5,1.7,7.7,2.2,11.3,2.4c5.4,0.3,10.7,0.4,16.1,0.1c4.1-0.2,8.4-0.6,12.2-2.2c1.5-0.7,3.5-1.7,4.4-3.2
	c0.4-1.5,0.4-3-0.1-4.5c-0.8-2.1-4.2-3-6-3.5c-5.6-1.5-11.7-1.5-17.6-1.5l-0.1-1.7l0.1-1.7c6.1,0,12.4,0.1,18.4,1.6
	C409.3,388.7,413.8,389.8,415.3,393.5L415.3,393.5z M480,18.1c0.1-1.8-0.1-3.7-0.5-5.4c-1.8-7.3-8.2-12.5-15.7-12.7
	c-0.7,0-1.4,0-2.1,0h-0.9H20c-1.1,0-2.1,0-3.2,0c-2.4,0-4.8,0.5-7,1.4c-3.4,1.5-6.3,4.2-8,7.5C0.6,11.3,0,14,0,16.8
	c0,1.3,0,2.6,0,3.9V326c-0.1,1.9,0.1,3.8,0.6,5.6c1.9,7.2,8.5,12.3,16,12.3h169.1l-3.9,45.9c-0.1,2.2-0.9,4.4-2.4,6.1H75.2
	c-0.7,0-1.5,0-2.3-0.1c-1.8-0.2-3.7-0.1-5.5,0.1l0,0l0,0c-0.1,0-0.1,0-0.2,0.1c-3.1,0.7-3.1,3.7-3.1,5.2v0.3c0,0.3,0,0.6,0,1
	c-0.1,0.9-0.1,1.8,0,2.6c0,0.1,0,0.2,0,0.3c0,0.2,0.1,0.4,0.1,0.6c0.1,0.2,0.1,0.4,0.2,0.5c0,0.1,0.1,0.2,0.1,0.3
	c0.1,0.2,0.2,0.4,0.4,0.6c0.1,0.1,0.1,0.2,0.2,0.2c0.2,0.2,0.3,0.3,0.5,0.5c0.1,0.1,0.2,0.1,0.2,0.2c0.2,0.1,0.4,0.2,0.6,0.3
	c0.1,0.1,0.2,0.1,0.3,0.2c0.1,0,0.1,0,0.2,0.1H67h0.1c0.3,0.1,0.6,0.1,0.8,0.1c0.1,0,0.2,0,0.3,0c0.2,0,0.4,0,0.6,0h0.1H69h241.5
	c0.3,0,0.6,0,1,0.1c0.5,0,1.1,0.1,1.7,0.1c1.3,0.1,2.6-0.2,3.8-0.9c0.1-0.1,0.2-0.2,0.3-0.3c0.1-0.1,0.2-0.1,0.2-0.2
	c0.1-0.1,0.2-0.2,0.3-0.4l0.1-0.1c0,0,0,0,0-0.1c0.1-0.2,0.2-0.4,0.3-0.6c0-0.1,0.1-0.2,0.1-0.3c0-0.1,0-0.1,0.1-0.2
	c0.2-1.1,0.3-2.3,0.2-3.5c0-0.1,0-0.2,0-0.3c0-0.1,0-0.2,0-0.2c0-0.2,0-0.5,0-0.8c0.1-0.6,0-1.3-0.1-1.9c0-0.1,0-0.2-0.1-0.3
	c0-0.1-0.1-0.2-0.1-0.3c0-0.2-0.1-0.3-0.1-0.5c0-0.1-0.1-0.1-0.1-0.2c-0.1-0.3-0.3-0.5-0.4-0.8c-0.1-0.1-0.2-0.2-0.2-0.3
	c-0.1-0.1-0.2-0.2-0.3-0.3c-0.7-0.6-1.7-0.9-2.6-0.9c0,0,0,0-0.1,0c-2.4-0.1-4.8-0.1-7.2,0c-1.2,0-2.3,0-3.5,0h-3.4
	c-0.8-0.9-1.4-1.9-1.8-3.1c-0.3-1.2-0.5-2.4-0.6-3.6l-3.9-45.4H463c2.3,0,4.6-0.4,6.7-1.2c3.5-1.4,6.4-4,8.2-7.3
	c1.4-2.5,2.1-5.3,2.1-8.2c0-1.3,0-2.5,0-3.8L480,18.1z M475.5,323.5c0,1.2,0,2.5,0,3.7c0,2.1-0.5,4.2-1.5,6c-1.3,2.4-3.4,4.3-6,5.3
	c-1.6,0.6-3.3,0.9-5,0.9h-3.3H16.5c-5.5,0-10.2-3.7-11.7-8.9c-0.3-1.5-0.5-3-0.4-4.5v-34.1h471L475.5,323.5L475.5,323.5z M4.5,288.6
	V20.7c0-1.3,0-2.6,0-3.9c0-2,0.5-4,1.4-5.8c1.3-2.4,3.3-4.4,5.8-5.5c1.6-0.7,3.4-1,5.2-1c1.1,0,2.1,0,3.2,0H440h21.9
	c0.6,0,1.3,0,1.9,0c5.5,0.1,10.2,3.9,11.5,9.2c0.3,1.4,0.4,2.9,0.3,4.4v270.5H4.5z M303.9,399.3h10.2c0.2,0,0.3,0,0.4,0
	c0.2,0,0.5,0.1,0.6,0.2c0.1,0.1,0.1,0.1,0.1,0.2c0.1,0.4,0.2,0.9,0.1,1.3c-0.1,0.2-0.1,0.3-0.1,0.5v0.1c0,0.1,0,0.1-0.1,0.2
	c-0.3,0.5-2.4,0.4-3.3,0.4c-0.4,0-0.8-0.1-1.2-0.1H70.3h-0.5c-0.5,0-2,0-2.2-0.2c0-0.1-0.1-0.2,0-0.3l0,0v-0.3c0-1.9,0.2-1.9,0.5-2
	c0.4,0,0.7,0,1.1,0c0.2,0,0.5,0,0.7,0L303.9,399.3z M69.4,405.8L69.4,405.8c-0.2,0-0.4,0-0.5,0h-0.2h-0.2c-0.1,0-0.2,0-0.2,0
	c-0.1,0-0.2,0-0.3,0c0,0,0,0-0.1,0c0,0-0.1,0-0.1-0.1c0,0,0,0-0.1,0c-0.1-0.1-0.1-0.1-0.1-0.2l0,0l0,0c0.8,0.1,1.5,0.1,2.3,0.1h241
	c0.3,0,0.6,0,1,0c0.5,0,1.1,0.1,1.6,0.1c0.6,0,1.2-0.1,1.8-0.2c-0.3,0.5-1.6,0.5-2.9,0.4c-0.4,0-0.7,0-1.1,0L69.4,405.8L69.4,405.8z
	 M294.9,389.6c0.1,1.5,0.3,3,0.7,4.4c0.2,0.7,0.5,1.4,0.9,2h-113c0.9-1.8,1.5-3.8,1.6-5.8L189,344h101.9L294.9,389.6z"/>
</svg>
